HIERARCHY
ROOT joint_Root
{
	OFFSET 0.0 0.0 0.0
	CHANNELS 6 Xposition Yposition Zposition Zrotation Xrotation Yrotation 
	JOINT Hips
	{
		OFFSET -17.1583 93.1646 452.98
		CHANNELS 6 Xposition Yposition Zposition Zrotation Xrotation Yrotation 
		JOINT Spine
		{
			OFFSET 15.7357 0.0 0.0
			CHANNELS 6 Xposition Yposition Zposition Zrotation Xrotation Yrotation 
			JOINT Chest
			{
				OFFSET 8.98455 -0.406207 0.0
				CHANNELS 6 Xposition Yposition Zposition Zrotation Xrotation Yrotation 
				JOINT Neck
				{
					OFFSET 16.3773 0.0 0.0
					CHANNELS 6 Xposition Yposition Zposition Zrotation Xrotation Yrotation 
					JOINT Head
					{
						OFFSET 6.45672 0.0 0.0
						CHANNELS 6 Xposition Yposition Zposition Zrotation Xrotation Yrotation 
						End Site
						{
							OFFSET 0.0 0.0 0.0
						}
					}
				}
				JOINT Shoulder_L
				{
					OFFSET 12.9942 -0.242716 4.98039
					CHANNELS 6 Xposition Yposition Zposition Zrotation Xrotation Yrotation 
					JOINT UpperArm_L
					{
						OFFSET 5.34809 0.0 0.0
						CHANNELS 6 Xposition Yposition Zposition Zrotation Xrotation Yrotation 
						JOINT LowerArm_L
						{
							OFFSET 24.3286 1.87007e-05 0.0
							CHANNELS 6 Xposition Yposition Zposition Zrotation Xrotation Yrotation 
							JOINT Hand_L
							{
								OFFSET 22.2916 0.0 0.0
								CHANNELS 6 Xposition Yposition Zposition Zrotation Xrotation Yrotation 
								End Site
								{
									OFFSET 0.0 0.0 0.0
								}
							}
						}
					}
				}
				JOINT Shoulder_R
				{
					OFFSET 12.9945 -0.242716 -4.98039
					CHANNELS 6 Xposition Yposition Zposition Zrotation Xrotation Yrotation 
					JOINT UpperArm_R
					{
						OFFSET -5.34813 0.0 0.0
						CHANNELS 6 Xposition Yposition Zposition Zrotation Xrotation Yrotation 
						JOINT LowerArm_R
						{
							OFFSET -24.3289 0.000322201 0.0
							CHANNELS 6 Xposition Yposition Zposition Zrotation Xrotation Yrotation 
							JOINT Hand_R
							{
								OFFSET -22.2915 -0.000108084 0.0
								CHANNELS 6 Xposition Yposition Zposition Zrotation Xrotation Yrotation 
								End Site
								{
									OFFSET 0.0 0.0 0.0
								}
							}
						}
					}
				}
			}
		}
		JOINT UpperLeg_L
		{
			OFFSET -2.19248 -6.46944 0.0
			CHANNELS 6 Xposition Yposition Zposition Zrotation Xrotation Yrotation 
			JOINT LowerLeg_L
			{
				OFFSET 39.0811 0.0 -1.23785e-05
				CHANNELS 6 Xposition Yposition Zposition Zrotation Xrotation Yrotation 
				JOINT Foot_L
				{
					OFFSET 40.9854 0.0 -1.26872e-05
					CHANNELS 6 Xposition Yposition Zposition Zrotation Xrotation Yrotation 
					JOINT Toes_L
					{
						OFFSET 11.7543 0.0 0.0
						CHANNELS 6 Xposition Yposition Zposition Zrotation Xrotation Yrotation 
						End Site
						{
							OFFSET 0.0 0.0 0.0
						}
					}
				}
			}
		}
		JOINT UpperLeg_R
		{
			OFFSET -2.19251 6.46944 0.0
			CHANNELS 6 Xposition Yposition Zposition Zrotation Xrotation Yrotation 
			JOINT LowerLeg_R
			{
				OFFSET -39.0811 -0.00228153 -0.0401928
				CHANNELS 6 Xposition Yposition Zposition Zrotation Xrotation Yrotation 
				JOINT Foot_R
				{
					OFFSET -40.9854 0.0 0.0
					CHANNELS 6 Xposition Yposition Zposition Zrotation Xrotation Yrotation 
					JOINT Toes_R
					{
						OFFSET -11.7543 0.0 0.0
						CHANNELS 6 Xposition Yposition Zposition Zrotation Xrotation Yrotation 
						End Site
						{
							OFFSET 0.0 0.0 0.0
						}
					}
				}
			}
		}
	}
}
MOTION
Frames:	4
Frame Time:	0.0333333
0.000000 0.000000 0.000000 0.000000 0.000000 -0.000000 -0.723351 92.993600 -1.263880 87.559800 3.502780 1.357080 15.735700 0.000005 -0.000001 66.886400 87.127800 -65.160100 8.984550 -0.406207 -0.000000 -2.445060 -2.408020 3.401530 16.377300 -0.000001 -0.000001 3.690660 1.140610 -2.285760 6.456720 -0.000001 -0.000000 1.198950 0.306308 -1.348380 12.994200 -0.242716 4.980390 -92.286800 7.175520 -72.270900 5.348090 -0.000007 -0.000001 -74.209700 24.705600 1.925150 24.328600 0.000019 0.000005 15.191800 27.525500 -30.437000 22.291600 -0.000001 0.000005 -4.514330 5.023600 6.813460 12.994500 -0.242716 -4.980390 88.758400 4.081730 -73.064500 -5.348130 -0.000001 -0.000004 -71.121700 29.074200 -4.539570 -24.328900 0.000322 -0.000009 2.213700 7.499260 -16.505700 -22.291500 -0.000108 -0.000004 1.853830 5.224440 2.098970 -2.192480 -6.469440 -0.000000 -176.748000 3.982570 -3.291230 39.081100 -0.000007 -0.000012 0.189923 -0.533011 19.612400 40.985400 -0.000006 -0.000013 2.565150 10.697900 -71.268800 11.754300 -0.000000 0.000003 -0.000484 0.175406 -9.461990 -2.192510 6.469440 -0.000001 -175.468000 7.566730 -178.738000 -39.081100 -0.002282 -0.040193 0.037857 -0.152348 12.767700 -40.985400 0.000008 0.000006 -0.276748 0.340180 -68.763400 -11.754300 -0.000006 -0.000006 -0.009779 0.269646 -5.618860
0.000000 0.000000 0.000000 0.000000 0.000000 -0.000000 -0.722208 92.997100 -1.276030 87.572700 3.443940 1.277730 15.735700 0.000005 -0.000001 66.851900 87.134000 -65.099500 8.984550 -0.406207 -0.000000 -2.457190 -2.408810 3.453440 16.377300 -0.000001 -0.000001 3.493520 1.098760 -2.309730 6.456720 -0.000001 -0.000000 1.119720 0.217257 -1.456310 12.994200 -0.242716 4.980390 -92.283600 7.180890 -72.306500 5.348090 -0.000007 -0.000001 -74.049200 24.057500 2.095670 24.328600 0.000019 0.000005 15.557400 27.325100 -31.236400 22.291600 -0.000001 0.000005 -4.345210 5.031880 6.633860 12.994500 -0.242716 -4.980390 88.766100 4.047770 -73.031800 -5.348130 -0.000001 -0.000004 -71.106900 28.938700 -4.559400 -24.328900 0.000322 -0.000009 2.220320 7.520340 -16.508700 -22.291500 -0.000108 -0.000004 1.834300 5.225630 2.068400 -2.192480 -6.469440 -0.000000 -176.751000 3.873110 -3.358900 39.081100 -0.000007 -0.000012 0.189121 -0.531805 19.576800 40.985400 -0.000006 -0.000013 2.572860 10.747800 -71.223700 11.754300 -0.000000 0.000003 -0.000434 0.174629 -9.493540 -2.192510 6.469440 -0.000001 -175.465000 7.465930 -178.818000 -39.081100 -0.002282 -0.040193 0.037814 -0.152332 12.753900 -40.985400 0.000008 0.000006 -0.276744 0.332498 -68.710000 -11.754300 -0.000006 -0.000006 -0.009310 0.266078 -5.764720
0.000000 0.000000 0.000000 0.000000 0.000000 -0.000000 -0.740188 93.015300 -1.295500 87.558800 3.397650 1.195560 15.735700 0.000005 -0.000001 66.573000 87.132400 -64.783400 8.984550 -0.406207 -0.000000 -2.463990 -2.439120 3.527120 16.377300 -0.000001 -0.000001 3.324660 0.981387 -2.315070 6.456720 -0.000001 -0.000000 0.912180 0.090204 -1.663530 12.994200 -0.242716 4.980390 -92.304600 7.236490 -72.281900 5.348090 -0.000007 -0.000001 -73.761200 22.893900 2.197520 24.328600 0.000019 0.000005 16.182100 27.313800 -32.309500 22.291600 -0.000001 0.000005 -4.329340 5.035660 6.551700 12.994500 -0.242716 -4.980390 88.774400 4.020310 -73.030600 -5.348130 -0.000001 -0.000004 -71.079000 28.867400 -4.605800 -24.328900 0.000322 -0.000009 2.237260 7.588510 -16.487400 -22.291500 -0.000108 -0.000004 1.773690 5.222420 2.150870 -2.192480 -6.469440 -0.000000 -176.707000 3.785500 -3.383450 39.081100 -0.000007 -0.000012 0.185468 -0.525465 19.441300 40.985400 -0.000006 -0.000013 2.549660 10.793700 -71.134800 11.754300 -0.000000 0.000003 -0.000236 0.171503 -9.620540 -2.192510 6.469440 -0.000001 -175.444000 7.368900 -178.859000 -39.081100 -0.002282 -0.040193 0.035050 -0.141524 12.631300 -40.985400 0.000008 0.000006 -0.472085 0.313917 -68.620200 -11.754300 -0.000006 -0.000006 -0.009686 0.268947 -5.647440
0.000000 0.000000 0.000000 0.000000 0.000000 -0.000000 -0.768758 93.031900 -1.326120 87.562800 3.414760 1.058730 15.735700 0.000005 -0.000001 66.104000 87.138500 -64.293300 8.984550 -0.406207 -0.000000 -2.492820 -2.479520 3.567890 16.377300 -0.000001 -0.000001 3.098290 0.841659 -2.387940 6.456720 -0.000001 -0.000000 0.723852 -0.142886 -1.795820 12.994200 -0.242716 4.980390 -92.299500 7.225610 -72.293700 5.348090 -0.000007 -0.000001 -73.398100 21.522600 2.343700 24.328600 0.000019 0.000005 16.915800 26.789300 -34.010100 22.291600 -0.000001 0.000005 -4.278140 5.028690 6.703180 12.994500 -0.242716 -4.980390 88.764700 4.049130 -73.019000 -5.348130 -0.000001 -0.000004 -71.020300 28.838100 -4.640540 -24.328900 0.000322 -0.000009 2.242220 7.601670 -16.495100 -22.291500 -0.000108 -0.000004 1.747820 5.221150 2.183310 -2.192480 -6.469440 -0.000000 -176.671000 3.762290 -3.490780 39.081100 -0.000007 -0.000012 0.183035 -0.521792 19.330200 40.985400 -0.000006 -0.000013 2.519660 10.850800 -71.089100 11.754300 -0.000000 0.000003 -0.000302 0.172562 -9.577510 -2.192510 6.469440 -0.000001 -175.418000 7.306340 -178.980000 -39.081100 -0.002282 -0.040193 0.033012 -0.133487 12.534600 -40.985400 0.000008 0.000006 -0.617495 0.259366 -68.529500 -11.754300 -0.000006 -0.000006 -0.009814 0.269907 -5.608170
